<svg width="32" height="64" viewBox="0 0 32 64" xmlns="http://www.w3.org/2000/svg">
  <!-- Environment: Server Wall (Tall) -->
  <!-- Server Rack 1x2 -->
  
  <!-- Rack Body -->
  <rect width="32" height="64" fill="#212121" />
  
  <!-- Trim -->
  <rect x="0" y="0" width="2" height="64" fill="#424242" />
  <rect x="30" y="0" width="2" height="64" fill="#424242" />
  
  <!-- Servers (Stacked) -->
  <g fill="#000">
    <rect x="4" y="2" width="24" height="4" rx="1" />
    <rect x="4" y="8" width="24" height="4" rx="1" />
    <rect x="4" y="14" width="24" height="4" rx="1" />
    <rect x="4" y="20" width="24" height="4" rx="1" />
    <rect x="4" y="26" width="24" height="4" rx="1" />
    <rect x="4" y="32" width="24" height="4" rx="1" />
    <rect x="4" y="38" width="24" height="4" rx="1" />
    <rect x="4" y="44" width="24" height="4" rx="1" />
    <rect x="4" y="50" width="24" height="4" rx="1" />
    <rect x="4" y="56" width="24" height="4" rx="1" />
  </g>
  
  <!-- Blinking Lights -->
  <!-- Top Section -->
  <circle cx="6" cy="4" r="1" fill="#00E676">
    <animate attributeName="opacity" values="1;0.2;1" dur="0.5s" repeatCount="indefinite" />
  </circle>
  <circle cx="8" cy="4" r="1" fill="#00E676" />
  <circle cx="26" cy="10" r="1" fill="#F44336">
     <animate attributeName="opacity" values="1;0;1" dur="0.8s" repeatCount="indefinite" />
  </circle>
  <circle cx="6" cy="16" r="1" fill="#2979FF" />

  <!-- Bottom Section -->
  <circle cx="26" cy="34" r="1" fill="#00E676" />
  <circle cx="26" cy="46" r="1" fill="#FFC107">
     <animate attributeName="opacity" values="1;0.5;1" dur="1.2s" repeatCount="indefinite" />
  </circle>
  <circle cx="6" cy="58" r="1" fill="#F44336" />
</svg>
