<svg width="64" height="64" viewBox="0 0 64 64" fill="none" xmlns="http://www.w3.org/2000/svg">
  <!-- Sky -->
  <rect width="64" height="64" fill="#0D47A1"/>
  <!-- Moon -->
  <circle cx="50" cy="10" r="4" fill="#E3F2FD" fill-opacity="0.2"/>
  
  <!-- Skyline -->
  <path d="M0 64V30H10V64H0Z" fill="#1A237E"/>
  <path d="M10 64V20H24V64H10Z" fill="#1565C0"/>
  <path d="M24 64V35H34V64H24Z" fill="#283593"/>
  <path d="M34 64V10H46V64H34Z" fill="#303F9F"/> 
  <path d="M46 64V40H54V64H46Z" fill="#1A237E"/>
  <path d="M54 64V25H64V64H54Z" fill="#1565C0"/>
  
  <!-- Lights -->
  <g fill="#FFEB3B">
      <rect x="14" y="24" width="2" height="2"/> <rect x="18" y="24" width="2" height="2"/>
      <rect x="38" y="14" width="2" height="2"/> <rect x="42" y="20" width="2" height="2"/>
  </g>

  <!-- Frame Background -->
  <rect x="0" y="0" width="64" height="64" stroke="#424242" stroke-width="4"/> <!-- Borders -->
  <rect x="30" y="0" width="4" height="64" fill="#424242"/> <!-- Mid -->
  <path d="M0 64L64 0" stroke="white" stroke-opacity="0.1" stroke-width="2"/>
</svg>
